 http://www.imdb.com/title/tt0091886/





Format : MPEG-4
Format profile : Base Media / Version 2
Codec ID : mp42
File size : 1.59 GiB
Duration : 2h 2mn
Overall bit rate mode : Variable
Overall bit rate : 1 858 Kbps
Encoded date : UTC 2012-09-17 18:40:10
Tagged date : UTC 2012-09-17 19:40:21
Writing application : HandBrake 0.9.8 2012071800
Video
ID : 1
Format : AVC
Format/Info : Advanced Video Codec
Format profile : Main@L3.1
Format settings, CABAC : Yes
Format settings, ReFrames : 4 frames
Codec ID : avc1
Codec ID/Info : Advanced Video Coding
Duration : 2h 2mn
Bit rate mode : Variable
Bit rate : 1 691 Kbps
Width : 1 280 pixels
Height : 688 pixels
Display aspect ratio : 1.85:1
Frame rate mode : Variable
Frame rate : 24.000 fps
Minimum frame rate : 23.810 fps
Maximum frame rate : 1 000.000 fps
Color space : YUV
Chroma subsampling : 4:2:0
Bit depth : 8 bits
Scan type : Progressive
Bits/(Pixel*Frame) : 0.080
Stream size : 1.45 GiB (91%)
Writing library : x264 core 120
Encoded date : UTC 2012-09-17 18:40:10
Tagged date : UTC 2012-09-17 19:40:21
Color primaries : BT.709-5, BT.1361, IEC 61966-2-4, SMPTE RP177
Transfer characteristics : BT.709-5, BT.1361
Matrix coefficients : BT.709-5, BT.1361, IEC 61966-2-4 709, SMPTE RP177
Audio
ID : 2
Format : AAC
Format/Info : Advanced Audio Codec
Format profile : LC
Codec ID : 40
Duration : 2h 2mn
Bit rate mode : Variable
Bit rate : 161 Kbps
Maximum bit rate : 251 Kbps
Channel(s) : 2 channels
Channel positions : Front: L R
Sampling rate : 48.0 KHz
Compression mode : Lossy
Stream size : 141 MiB (9%)
Language : English






If you have any requests please leave them at my Suprbay forum, from now on i 

will disregard any requests left on here


  https://forum.suprbay.org/showthread.php?tid=130110






                                ENCODED BY THE HAMBURGLER


Please Comment On Quality And Seed

Sharing Is Caring
